<svg xmlns="http://www.w3.org/2000/svg" viewBox="6.8 -188.78 764.13 198.37" role="img" aria-label="Oktan" preserveAspectRatio="xMidYMid meet">
  <title>Oktan</title>
  <defs>
    <linearGradient id="okFill" x1="6%" y1="0%" x2="0%" y2="100%">
      <stop offset="0" stop-color="#ffffff"/>
      <stop offset="0.32" stop-color="#f3ffe0"/>
      <stop offset="0.66" stop-color="#cfff7a"/>
      <stop offset="1" stop-color="#aaff00"/>
    </linearGradient>
    <linearGradient id="okShine" x1="0%" y1="0%" x2="100%" y2="0%">
      <stop offset="0" stop-color="#18e0c8" stop-opacity="0"/>
      <stop offset="0.42" stop-color="#18e0c8"/>
      <stop offset="0.5" stop-color="#ffffff"/>
      <stop offset="0.58" stop-color="#b85cff"/>
      <stop offset="1" stop-color="#b85cff" stop-opacity="0"/>
    </linearGradient>
    <clipPath id="okClip"><path d="M86.53 3.58Q52.74 3.58 32.77-14.98Q12.80-33.54 12.80-68.10L12.80-111.10Q12.80-145.66 32.77-164.22Q52.74-182.78 86.53-182.78Q120.32-182.78 140.29-164.22Q160.26-145.66 160.26-111.10L160.26-68.10Q160.26-33.54 140.29-14.98Q120.32 3.58 86.53 3.58M86.53-26.62Q105.47-26.62 115.97-37.63Q126.46-48.64 126.46-67.07L126.46-112.13Q126.46-130.56 115.97-141.57Q105.47-152.58 86.53-152.58Q67.84-152.58 57.22-141.57Q46.59-130.56 46.59-112.13L46.59-67.07Q46.59-48.64 57.22-37.63Q67.84-26.62 86.53-26.62M214.78 0L180.99 0L180.99-179.20L214.78-179.20L214.78-108.03L219.39-108.03L277.50-179.20L320.77-179.20L246.02-90.88L323.33 0L278.78 0L219.39-72.70L214.78-72.70L214.78 0M407.55 0L373.76 0L373.76-148.48L321.54-148.48L321.54-179.20L459.78-179.20L459.78-148.48L407.55-148.48L407.55 0M496.38 0L461.57 0L508.67-179.20L567.55-179.20L614.66 0L579.84 0L570.11-39.42L506.11-39.42L496.38 0M535.81-157.95L514.05-70.66L562.18-70.66L540.42-157.95L535.81-157.95M660.48 0L627.20 0L627.20-179.20L691.46-179.20L727.04-23.04L731.65-23.04L731.65-179.20L764.93-179.20L764.93 0L700.67 0L665.09-156.16L660.48-156.16"/></clipPath>
    <style>@media (prefers-reduced-motion: reduce){.ok-shine{display:none}}</style>
  </defs>
  <path d="M86.53 3.58Q52.74 3.58 32.77-14.98Q12.80-33.54 12.80-68.10L12.80-111.10Q12.80-145.66 32.77-164.22Q52.74-182.78 86.53-182.78Q120.32-182.78 140.29-164.22Q160.26-145.66 160.26-111.10L160.26-68.10Q160.26-33.54 140.29-14.98Q120.32 3.58 86.53 3.58M86.53-26.62Q105.47-26.62 115.97-37.63Q126.46-48.64 126.46-67.07L126.46-112.13Q126.46-130.56 115.97-141.57Q105.47-152.58 86.53-152.58Q67.84-152.58 57.22-141.57Q46.59-130.56 46.59-112.13L46.59-67.07Q46.59-48.64 57.22-37.63Q67.84-26.62 86.53-26.62M214.78 0L180.99 0L180.99-179.20L214.78-179.20L214.78-108.03L219.39-108.03L277.50-179.20L320.77-179.20L246.02-90.88L323.33 0L278.78 0L219.39-72.70L214.78-72.70L214.78 0M407.55 0L373.76 0L373.76-148.48L321.54-148.48L321.54-179.20L459.78-179.20L459.78-148.48L407.55-148.48L407.55 0M496.38 0L461.57 0L508.67-179.20L567.55-179.20L614.66 0L579.84 0L570.11-39.42L506.11-39.42L496.38 0M535.81-157.95L514.05-70.66L562.18-70.66L540.42-157.95L535.81-157.95M660.48 0L627.20 0L627.20-179.20L691.46-179.20L727.04-23.04L731.65-23.04L731.65-179.20L764.93-179.20L764.93 0L700.67 0L665.09-156.16L660.48-156.16" fill="url(#okFill)"/>
  <g class="ok-shine" clip-path="url(#okClip)" style="mix-blend-mode:screen">
    <rect x="-375.26" y="-188.78" width="275.09" height="198.37" fill="url(#okShine)" opacity="0">
      <animate attributeName="x" from="-375.26" to="770.93" dur="2.6s" begin="1.4s" fill="freeze"/>
      <animate attributeName="opacity" values="0;1;1;0" keyTimes="0;0.12;0.82;1" dur="2.6s" begin="1.4s" fill="freeze"/>
    </rect>
  </g>
</svg>
